<svg width="166" height="123" viewBox="0 0 166 123" fill="none" xmlns="http://www.w3.org/2000/svg">
<path d="M163.708 93.5093C157.893 106.209 152.765 123.032 135.748 119.84C127.661 118.324 120.6 106.983 120.51 99.4358C120.435 93.1755 118.102 85.44 124.234 81.0694C129.051 77.6364 135.466 77.5806 139.809 81.9922C152.142 94.5201 131.964 105.504 121.446 104.248C107.088 102.533 88.0023 68.5516 99.4693 56.48C109.301 46.1297 117.371 60.2404 110.658 69.4901C101.215 82.5018 91.6989 83.62 78.6306 71.4766C68.4268 61.995 69.8824 43.7703 76.7602 33.7151C78.1887 31.6267 83.0447 17.4027 84.5774 18.6742C99.7016 31.2206 76.291 53.203 62.2101 51.41C46.0315 49.3499 29.6851 47.0808 18.1923 35.2801C12.012 28.9342 -0.293615 5.48 2.37279 13.9273C5.70965 24.4986 9.25233 39.0848 5.61149 50.1469C4.52811 53.4385 1.32251 64.0334 3.92928 53.7883C6.61393 43.237 9.22452 34.0057 9.85547 23.6842C9.99588 21.3873 6.79591 18.3889 5.64008 16.5385C4.66109 14.9713 11.4664 16.5607 12.2667 16.5824C19.1765 16.7696 25.2404 13.6498 30.863 9.91833C35.8816 6.58782 41.4616 0.631793 45.5646 2.28393" stroke="#00ADB5" stroke-opacity="0.2" stroke-width="4" stroke-linecap="round" stroke-linejoin="round"/>
</svg>
