<svg width="121" height="172" viewBox="0 0 121 172" fill="none" xmlns="http://www.w3.org/2000/svg">
<path d="M2.00022 14.3329C13.716 6.72705 27.061 -4.72771 39.7178 7.08695C45.732 12.701 45.6161 26.0597 41.6478 32.48C38.3562 37.8057 36.1799 45.5866 28.6603 45.9903C22.754 46.3073 17.3083 42.9166 16.0057 36.8645C12.3066 19.6778 35.2287 21.2183 43.4363 27.9158C54.6391 37.0575 52.5416 75.9758 36.3909 80.0223C22.5434 83.4918 23.2921 67.2536 33.9166 63.0418C48.8621 57.117 57.4959 61.273 62.0214 78.5288C65.5549 92.0022 54.5591 106.609 43.3636 111.412C41.0384 112.41 29.3157 121.816 28.7031 119.921C22.658 101.224 54.2036 95.2105 65.1308 104.27C77.686 114.68 90.2707 125.356 93.6496 141.478C95.4666 150.148 93.2865 176.544 95.5623 167.984C98.4104 157.27 103.236 143.057 112.239 135.669C114.917 133.47 123.302 126.243 115.61 133.496C107.689 140.965 100.538 147.36 94.4738 155.736C93.1243 157.6 94.2191 161.846 94.2033 164.028C94.1899 165.876 89.2961 160.887 88.6321 160.44C82.8986 156.579 76.1071 155.963 69.3603 156.1C63.3385 156.222 55.4355 158.26 52.8568 154.667" stroke="#00ADB5" stroke-opacity="0.2" stroke-width="4" stroke-linecap="round" stroke-linejoin="round"/>
</svg>
